<svg xmlns="http://www.w3.org/2000/svg" fill="#4000FF" viewBox="0 0 64 80" x="0px" y="0px"><title></title><path d="M56.5,3.07A2,2,0,0,0,52.83,4.4c.6,4.61-.06,6.45-.73,7.18a2.62,2.62,0,0,1-2.27.68l-2.84,0A15.92,15.92,0,0,0,35.22,2.07a14.88,14.88,0,0,0-2.73-.33,14.5,14.5,0,0,0-4.55.51A15.93,15.93,0,0,0,17,12.28l-2.92,0a2.49,2.49,0,0,1-2.19-.68c-.67-.73-1.33-2.57-.73-7.18A2,2,0,0,0,7.5,3.07L3.87,8.77a10.84,10.84,0,0,0,2,14.15,15.35,15.35,0,0,0,3.88,2.34,18.69,18.69,0,0,0,2.52.9,14.67,14.67,0,0,0,2.81,13.11l3.82,4.67a4.68,4.68,0,0,0-1.49,3.43v2.08a6.87,6.87,0,0,0,6.44,6.86A7.37,7.37,0,0,0,31,61.86h2a7.37,7.37,0,0,0,7.13-5.55,6.87,6.87,0,0,0,6.44-6.86V47.37a4.68,4.68,0,0,0-1.49-3.43l3.82-4.68a14.64,14.64,0,0,0,2.81-13.1,18.79,18.79,0,0,0,2.5-.89,14.92,14.92,0,0,0,3.89-2.35,10.84,10.84,0,0,0,2-14.15Zm-31.68,11A5.61,5.61,0,0,1,30,8.48a2,2,0,0,1,4,0,5.61,5.61,0,0,1,5.19,5.58,2,2,0,0,1-4,0A1.61,1.61,0,0,0,34,12.52v3.17a5.6,5.6,0,0,1,0,11.16,2,2,0,0,1-4,0,5.6,5.6,0,0,1-5.19-5.58,2,2,0,0,1,4,0A1.6,1.6,0,0,0,30,22.81V19.65A5.62,5.62,0,0,1,24.82,14.06Zm30.71,5.79h0a11.44,11.44,0,0,1-2.9,1.74,19.35,19.35,0,0,1-3.93,1.18,2,2,0,0,0-1.44,2.78,10.65,10.65,0,0,1-1.46,11.17l-5.46,6.68a2,2,0,0,0,1.55,3.27.69.69,0,0,1,.68.69v2.08a2.87,2.87,0,0,1-2.86,2.87H38.34a2,2,0,0,0-2,2v.19A3.35,3.35,0,0,1,33,57.86H31a3.35,3.35,0,0,1-3.35-3.35v-.19a2,2,0,0,0-2-2H24.3a2.87,2.87,0,0,1-2.86-2.87V47.37a.69.69,0,0,1,.68-.69,2,2,0,0,0,1.55-3.27l-5.46-6.67a10.67,10.67,0,0,1-1.46-11.18,2,2,0,0,0-1.44-2.78,19.3,19.3,0,0,1-4-1.19,11.32,11.32,0,0,1-2.89-1.74,6.84,6.84,0,0,1-1.22-8.94v0a7.34,7.34,0,0,0,1.68,3.38,6.41,6.41,0,0,0,5.21,2h2a.76.76,0,0,1,0,.15c0,.41-.05.83-.05,1.25a15.92,15.92,0,0,0,8.76,14.22A15.73,15.73,0,0,0,32,33.61h.47a14.94,14.94,0,0,0,2.72-.32A16,16,0,0,0,47.94,17.67c0-.42,0-.84,0-1.25a.76.76,0,0,1,0-.15h1.89a6.49,6.49,0,0,0,5.29-2,7.34,7.34,0,0,0,1.68-3.38v0A6.84,6.84,0,0,1,55.53,19.85Z"/><path d="M30,12.52a1.61,1.61,0,0,0-1.18,1.54A1.59,1.59,0,0,0,30,15.6Z"/><path d="M35.18,21.27A1.6,1.6,0,0,0,34,19.73v3.08A1.6,1.6,0,0,0,35.18,21.27Z"/><text x="0" y="79" fill="#4000FF" font-size="5px" font-weight="bold" font-family="'Helvetica Neue', Helvetica, Arial-Unicode, Arial, Sans-serif"></text><text x="0" y="84" fill="#4000FF" font-size="5px" font-weight="bold" font-family="'Helvetica Neue', Helvetica, Arial-Unicode, Arial, Sans-serif"></text></svg>